<?xml version="1.0" encoding="UTF-8"?>
<!--Generator: Apple Native CoreSVG 341-->
<!DOCTYPE svg
PUBLIC "-//W3C//DTD SVG 1.1//EN"
       "http://www.w3.org/Graphics/SVG/1.1/DTD/svg11.dtd">
<svg version="1.1" xmlns="http://www.w3.org/2000/svg" xmlns:xlink="http://www.w3.org/1999/xlink" viewBox="0 0 19.9198 19.9218">
 <g>
  <rect height="19.9218" opacity="0" width="19.9198" x="0" y="0"/>
  <path d="M4.84792 11.0046C4.46032 11.0046 4.17644 10.7083 4.17644 10.331C4.17644 9.94976 4.46032 9.65129 4.84792 9.65129L9.27496 9.65129L9.27496 3.75327C9.27496 3.36777 9.57341 3.07355 9.94433 3.07355C10.3298 3.07355 10.6283 3.36777 10.6283 3.75327L10.6283 10.331C10.6283 10.7083 10.3298 11.0046 9.94433 11.0046ZM9.95468 19.9094C15.4511 19.9094 19.9197 15.4407 19.9197 9.95469C19.9197 4.46866 15.4511 0 9.95468 0C4.46865 0-8.88178e-16 4.46866-8.88178e-16 9.95469C-8.88178e-16 15.4407 4.46865 19.9094 9.95468 19.9094Z" fill="white" fill-opacity="0.85"/>
 </g>
</svg>
